<?xml version="1.0" encoding="utf-8"?>
<svg viewBox="0 0 512 512" xmlns="http://www.w3.org/2000/svg">
  <path fill="#FFFFFF" d="M 160.1 320 C 142.46 320 128.08 334.37 128.08 351.1 C 128.08 367.83 142.46 382.2 160.1 382.2 C 177.74 382.2 192.12 367.83 192.12 351.1 C 192.12 334.37 177.8 320 160.1 320 Z M 287.7 70.31 C 176.8 40.93 76 117.84 64.9 221.21 C 62.1 239.9 78.73 255.1 97.57 255.1 C 114.18 255.1 126.82 242.03 128.81 225.55 C 135.744 168.33 186.02 124.25 245.71 127.25 C 317.42 130.844 362.81 204.07 348.21 274.15 C 341.659 303.8 326.81 331.02 304.83 353.02 L 288 370.7 L 288 383.95 C 288 415.35 265.29 441.53 235.42 446.93 C 220.4 449.7 208 463.3 208 478.6 C 208 498.38 225.88 513.54 245.38 510.24 C 301.3 500.797 345.01 454.96 351.28 398.04 C 391.39 357.36 414.17 304.09 415.93 247.14 C 418.4 166.4 365.8 91 287.7 70.31 Z M 240 200 C 262.06 200 280 217.94 280 240 C 280 253.25 290.75 264 304 264 C 317.25 264 328 253.25 328 240 C 328 191.47 288.53 152 240 152 C 191.47 152 152 191.5 152 240 C 152 253.25 162.75 264 176 264 C 189.25 264 200 253.3 200 240 C 200 217.9 217.9 200 240 200 Z"/>
</svg>